<svg width="188" height="46" viewBox="0 0 188 46" fill="none" xmlns="http://www.w3.org/2000/svg">
<path d="M50.2872 11.8928H43.8575V10.0243C43.8561 9.08785 43.4835 8.19018 42.8214 7.52804C42.1592 6.86589 41.2616 6.49329 40.3251 6.49192H35.5618C34.6252 6.49261 33.7271 6.86499 33.0648 7.52728C32.4025 8.18958 32.0301 9.08764 32.0294 10.0243V11.8928H31.2027C31.0478 9.32427 30.7414 6.76711 30.2853 4.23465C29.8784 2.18729 29.3005 -1.52588e-05 27.6186 -1.52588e-05C26.0921 -1.52588e-05 25.5453 1.85297 25.3276 2.64341C24.915 4.22418 24.6222 5.8338 24.4516 7.45859C24.0914 10.3871 23.8504 13.9972 23.7389 17.926H15.9927C15.6435 17.926 15.3086 18.0647 15.0617 18.3116C14.8148 18.5585 14.6761 18.8934 14.6761 19.2426C14.6761 19.5917 14.8148 19.9266 15.0617 20.1735C15.3086 20.4204 15.6435 20.5591 15.9927 20.5591H23.6845C23.6845 21.3072 23.6802 22.0639 23.6716 22.8293C23.6716 23.7908 23.6716 24.7445 23.6949 25.6801H12.0327C11.6835 25.6801 11.3487 25.8188 11.1018 26.0657C10.8549 26.3126 10.7162 26.6474 10.7162 26.9966C10.7162 27.3458 10.8549 27.6806 11.1018 27.9275C11.3487 28.1744 11.6835 28.3131 12.0327 28.3131H23.7571C23.7968 29.5225 23.8478 30.7026 23.91 31.8533H20.8001C20.4509 31.8533 20.116 31.992 19.8691 32.2389C19.6223 32.4858 19.4835 32.8206 19.4835 33.1698C19.4835 33.5189 19.6223 33.8538 19.8691 34.1007C20.116 34.3476 20.4509 34.4863 20.8001 34.4863H24.094C24.1977 35.8106 24.3195 37.0572 24.4594 38.1975C24.63 39.8223 24.9228 41.4319 25.3354 43.0127C25.566 43.8031 26.0999 45.6535 27.6263 45.6535C29.1528 45.6535 29.754 43.8756 30.1816 41.9553C30.6555 39.5647 30.9749 37.146 31.1379 34.7144C31.1379 34.6392 31.1509 34.5615 31.1561 34.4863H50.295C51.3017 34.4856 52.267 34.0854 52.9789 33.3735C53.6908 32.6617 54.091 31.6964 54.0917 30.6896V15.6895C54.0913 15.1903 53.9926 14.6962 53.8012 14.2352C53.6098 13.7742 53.3295 13.3554 52.9761 13.0028C52.6228 12.6502 52.2035 12.3707 51.7421 12.1803C51.2808 11.9898 50.7864 11.8921 50.2872 11.8928ZM41.9216 26.9992C41.9216 27.3484 41.7828 27.6832 41.536 27.9301C41.2891 28.177 40.9542 28.3157 40.605 28.3157H38.8246C38.6517 28.3157 38.4805 28.2817 38.3208 28.2155C38.1611 28.1494 38.0159 28.0524 37.8937 27.9301C37.7714 27.8079 37.6745 27.6627 37.6083 27.503C37.5421 27.3433 37.5081 27.1721 37.5081 26.9992C37.5081 26.8263 37.5421 26.6551 37.6083 26.4954C37.6745 26.3357 37.7714 26.1905 37.8937 26.0683C38.0159 25.946 38.1611 25.849 38.3208 25.7829C38.4805 25.7167 38.6517 25.6827 38.8246 25.6827H40.605C40.954 25.6834 41.2885 25.8223 41.5352 26.069C41.7819 26.3158 41.9209 26.6502 41.9216 26.9992ZM35.0901 25.6827C35.4393 25.6827 35.7741 25.8214 36.021 26.0683C36.2679 26.3152 36.4066 26.65 36.4066 26.9992C36.4066 27.3484 36.2679 27.6832 36.021 27.9301C35.7741 28.177 35.4393 28.3157 35.0901 28.3157H29.3238C28.9747 28.3157 28.6398 28.177 28.3929 27.9301C28.146 27.6832 28.0073 27.3484 28.0073 26.9992C28.0073 26.65 28.146 26.3152 28.3929 26.0683C28.6398 25.8214 28.9747 25.6827 29.3238 25.6827H35.0901ZM30.1661 20.5591H28.4764C28.1272 20.5591 27.7923 20.4204 27.5454 20.1735C27.2985 19.9266 27.1598 19.5917 27.1598 19.2426C27.1598 18.8934 27.2985 18.5585 27.5454 18.3116C27.7923 18.0647 28.1272 17.926 28.4764 17.926H30.1661C30.5153 17.926 30.8501 18.0647 31.097 18.3116C31.3439 18.5585 31.4826 18.8934 31.4826 19.2426C31.4826 19.5917 31.3439 19.9266 31.097 20.1735C30.8501 20.4204 30.5153 20.5591 30.1661 20.5591ZM34.6625 10.0243C34.6632 9.78597 34.7582 9.55763 34.9267 9.38913C35.0952 9.22063 35.3235 9.12566 35.5618 9.12498H40.3251C40.5634 9.12566 40.7918 9.22063 40.9603 9.38913C41.1288 9.55763 41.2237 9.78597 41.2244 10.0243V11.8928H34.6625V10.0243ZM28.5619 11.8928H26.6856C26.8391 9.34613 27.1533 6.81168 27.6263 4.30462C27.9347 5.78701 28.2924 8.21015 28.5619 11.8928ZM28.4997 34.507C28.3489 36.8036 28.0503 39.0881 27.6056 41.3463C27.1737 39.0804 26.8794 36.7904 26.7245 34.4889H28.4997V34.507Z" fill="#763DF2"/>
<path d="M13.7277 14.5259H19.6546C20.0038 14.5259 20.3387 14.3872 20.5856 14.1403C20.8325 13.8934 20.9712 13.5585 20.9712 13.2094C20.9712 12.8602 20.8325 12.5253 20.5856 12.2784C20.3387 12.0315 20.0038 11.8928 19.6546 11.8928H13.7277C13.3785 11.8928 13.0436 12.0315 12.7967 12.2784C12.5498 12.5253 12.4111 12.8602 12.4111 13.2094C12.4111 13.5585 12.5498 13.8934 12.7967 14.1403C13.0436 14.3872 13.3785 14.5259 13.7277 14.5259Z" fill="#763DF2"/>
<path d="M13.3441 19.2427C13.3445 19.0697 13.3106 18.8983 13.2446 18.7385C13.1786 18.5786 13.0816 18.4333 12.9593 18.311C12.837 18.1887 12.6917 18.0917 12.5318 18.0257C12.3719 17.9596 12.2006 17.9258 12.0276 17.9262H1.31653C0.96736 17.9262 0.632496 18.0649 0.385599 18.3117C0.138702 18.5586 0 18.8935 0 19.2427C0 19.5918 0.138702 19.9267 0.385599 20.1736C0.632496 20.4205 0.96736 20.5592 1.31653 20.5592H12.0276C12.2006 20.5595 12.3719 20.5257 12.5318 20.4597C12.6917 20.3936 12.837 20.2967 12.9593 20.1744C13.0816 20.052 13.1786 19.9068 13.2446 19.7469C13.3106 19.587 13.3445 19.4157 13.3441 19.2427Z" fill="#763DF2"/>
<path d="M8.38383 25.6827H6.5127C6.16354 25.6827 5.82867 25.8214 5.58177 26.0683C5.33488 26.3152 5.19617 26.6501 5.19617 26.9992C5.19617 27.3484 5.33488 27.6833 5.58177 27.9301C5.82867 28.177 6.16354 28.3158 6.5127 28.3158H8.38383C8.733 28.3158 9.06786 28.177 9.31476 27.9301C9.56166 27.6833 9.70036 27.3484 9.70036 26.9992C9.70036 26.6501 9.56166 26.3152 9.31476 26.0683C9.06786 25.8214 8.733 25.6827 8.38383 25.6827Z" fill="#763DF2"/>
<path d="M73.826 30.113V14.3794C73.826 14.1004 73.7151 13.8328 73.5178 13.6354C73.3205 13.4381 73.0528 13.3273 72.7738 13.3273H68.0726V9.87785H84.042V13.3273H79.4031C79.1238 13.3273 78.8559 13.438 78.6582 13.6353C78.4604 13.8325 78.349 14.1002 78.3483 14.3794V30.113H73.826Z" fill="#281354"/>
<path d="M91.0782 30.4706C88.7199 30.4706 86.8954 29.7761 85.654 28.3973C84.3939 27.025 83.7164 25.2166 83.7647 23.3541C83.7123 21.3829 84.4386 19.4705 85.7862 18.031C87.1338 16.5719 88.8754 15.8618 91.1093 15.8618C92.8897 15.8618 94.3773 16.3024 95.5306 17.1576C96.0665 17.5396 96.4994 18.0484 96.7907 18.6386C97.0819 19.2287 97.2224 19.8819 97.1996 20.5396C97.2365 21.6294 96.8426 22.6899 96.1033 23.4915C95.3855 24.2689 94.1674 24.6628 92.4751 24.6628H87.3334L87.6521 25.3989C88.2352 26.7569 89.5129 27.4462 91.4436 27.4462C92.7292 27.4243 93.9926 27.1078 95.1366 26.521C95.2564 26.4618 95.3945 26.4511 95.522 26.4911C95.6494 26.5312 95.7565 26.619 95.8208 26.7361L96.7227 28.3325C96.7582 28.3928 96.7812 28.4595 96.7902 28.5288C96.7993 28.5982 96.7942 28.6686 96.7753 28.7359C96.7564 28.8032 96.7241 28.866 96.6803 28.9205C96.6366 28.975 96.5822 29.0201 96.5206 29.053C94.8636 29.9981 92.9857 30.4873 91.0782 30.4706ZM91.1974 18.754C90.3794 18.758 89.5837 19.0211 88.9246 19.5056C88.1908 20.0421 87.6667 20.8173 87.4422 21.6981L87.2504 22.3693H91.1689C91.9153 22.3693 92.4958 22.1905 92.8923 21.8328C93.0838 21.6749 93.2386 21.4772 93.346 21.2534C93.4534 21.0297 93.5109 20.7852 93.5143 20.537C93.5131 20.2758 93.4477 20.0189 93.3239 19.7888C93.2001 19.5588 93.0216 19.3628 92.8042 19.2179C92.3324 18.8947 91.7689 18.732 91.1974 18.754Z" fill="#281354"/>
<path d="M104.707 9.87785H101.447C101.157 9.87785 100.921 10.1134 100.921 10.4039V29.5843C100.921 29.8749 101.157 30.1104 101.447 30.1104H104.707C104.998 30.1104 105.233 29.8749 105.233 29.5843V10.4039C105.233 10.1134 104.998 9.87785 104.707 9.87785Z" fill="#281354"/>
<path d="M116.279 30.4162C113.923 30.4162 112.096 29.7242 110.857 28.3429C109.596 26.9722 108.917 25.1644 108.965 23.3023C108.912 21.331 109.639 19.4184 110.987 17.9791C112.337 16.5175 114.079 15.8074 116.31 15.8074C118.09 15.8074 119.578 16.248 120.734 17.1187C121.267 17.4998 121.699 18.0066 121.989 18.5944C122.28 19.1821 122.421 19.8325 122.4 20.4878C122.436 21.5783 122.043 22.6393 121.304 23.4422C120.586 24.2197 119.368 24.6136 117.676 24.6136H112.529L112.845 25.347C113.431 26.7076 114.706 27.3944 116.637 27.3944C117.922 27.3725 119.185 27.0559 120.33 26.4692C120.45 26.4092 120.588 26.398 120.716 26.4381C120.844 26.4783 120.952 26.5665 121.016 26.6843L121.918 28.2833C121.986 28.4061 122.003 28.5508 121.964 28.6858C121.926 28.8207 121.836 28.9351 121.713 29.0038C120.058 29.945 118.183 30.4322 116.279 30.4162ZM116.398 18.6996C115.581 18.7042 114.786 18.9682 114.128 19.4538C113.393 19.9895 112.868 20.7649 112.643 21.6462L112.451 22.3175H116.359C117.106 22.3175 117.686 22.1361 118.083 21.781C118.274 21.6231 118.429 21.4254 118.536 21.2016C118.644 20.9779 118.701 20.7334 118.705 20.4852C118.703 20.2236 118.638 19.9663 118.514 19.7359C118.39 19.5055 118.212 19.3089 117.995 19.1635C117.525 18.8435 116.966 18.6811 116.398 18.6996Z" fill="#281354"/>
<path d="M126.122 35.3039V16.7326C126.122 16.6703 126.134 16.6086 126.158 16.5511C126.182 16.4936 126.217 16.4413 126.261 16.3972C126.305 16.3532 126.357 16.3183 126.415 16.2944C126.472 16.2706 126.534 16.2583 126.596 16.2583H129.517C129.642 16.259 129.762 16.3093 129.85 16.3981C129.939 16.487 129.988 16.6073 129.988 16.7326V17.6422L130.818 17.0565C131.873 16.2913 133.142 15.877 134.446 15.8722C136.076 15.8722 137.447 16.4942 138.637 17.7744C139.826 19.0547 140.417 20.7988 140.417 22.9757C140.417 25.2667 139.738 27.1223 138.396 28.4647C137.053 29.8072 135.361 30.4991 133.282 30.4991C132.536 30.5009 131.792 30.398 131.074 30.1933L130.4 29.999V35.3039C130.4 35.429 130.351 35.549 130.262 35.6375C130.174 35.7259 130.054 35.7756 129.929 35.7756H126.596C126.534 35.776 126.472 35.764 126.415 35.7405C126.357 35.7169 126.305 35.6822 126.261 35.6384C126.217 35.5945 126.182 35.5424 126.158 35.485C126.134 35.4276 126.122 35.3661 126.122 35.3039ZM133.168 19.0521C132.227 19.088 131.325 19.4436 130.613 20.0602L130.413 20.2183V26.8657L130.763 26.9901C131.414 27.215 132.099 27.3264 132.787 27.3192C133.252 27.3193 133.71 27.2095 134.124 26.9987C134.538 26.7879 134.896 26.4821 135.169 26.1064C135.778 25.3289 136.089 24.2923 136.089 22.9965C136.115 22.056 135.889 21.1256 135.436 20.3012C135.21 19.9043 134.878 19.5777 134.478 19.3573C134.078 19.1369 133.625 19.0312 133.168 19.0521Z" fill="#281354"/>
<path d="M151.411 30.4991C149.164 30.4991 147.368 29.8305 146.077 28.5114C144.786 27.1923 144.136 25.4015 144.154 23.1908C144.172 20.9362 144.83 19.135 146.106 17.8288C147.381 16.5227 149.164 15.8722 151.411 15.8722C153.743 15.8722 155.557 16.5201 156.801 17.8003C158.045 19.0806 158.693 20.8947 158.693 23.1857C158.693 25.417 158.042 27.213 156.757 28.5269C155.472 29.8409 153.678 30.4991 151.411 30.4991ZM151.411 19.021C149.946 19.021 148.2 19.744 148.2 23.1857C148.2 26.6273 149.946 27.3503 151.411 27.3503C152.875 27.3503 154.619 26.6273 154.619 23.1857C154.619 19.744 152.875 19.021 151.411 19.021Z" fill="#281354"/>
<path d="M162.414 29.5843V16.7844C162.414 16.6469 162.469 16.5151 162.566 16.4179C162.663 16.3207 162.795 16.2661 162.933 16.2661H165.986C166.123 16.2661 166.255 16.3207 166.352 16.4179C166.449 16.5151 166.504 16.6469 166.504 16.7844V18.583L167.403 17.6837C168.624 16.4656 169.886 15.8696 171.265 15.8696C171.777 15.8619 172.288 15.9336 172.778 16.0821C172.911 16.1234 173.022 16.2149 173.087 16.3369C173.153 16.4589 173.169 16.6018 173.131 16.7352L172.498 18.8862C172.461 19.0178 172.374 19.1296 172.255 19.197C172.136 19.2645 171.995 19.2823 171.863 19.2464C171.481 19.1562 171.09 19.1101 170.697 19.1091C169.319 19.1208 167.985 19.6016 166.916 20.4722L166.711 20.6303V29.5817C166.711 29.7192 166.657 29.851 166.559 29.9482C166.462 30.0454 166.33 30.1 166.193 30.1H162.941C162.872 30.101 162.804 30.0885 162.74 30.0631C162.677 30.0376 162.619 29.9998 162.57 29.9519C162.521 29.9039 162.482 29.8468 162.455 29.7837C162.429 29.7206 162.415 29.6528 162.414 29.5843Z" fill="#281354"/>
<path d="M183.259 30.4396C181.704 30.4396 180.496 30.0016 179.589 29.1023C178.682 28.203 178.239 26.9176 178.239 25.2434V18.6945H176.857C176.72 18.6945 176.588 18.6399 176.491 18.5427C176.394 18.4454 176.339 18.3136 176.339 18.1761V16.7948C176.339 16.6574 176.394 16.5255 176.491 16.4283C176.588 16.3311 176.72 16.2765 176.857 16.2765H178.239V12.1559C178.239 12.0184 178.293 11.8866 178.39 11.7894C178.488 11.6922 178.62 11.6376 178.757 11.6376H181.958C182.095 11.6376 182.227 11.6922 182.324 11.7894C182.421 11.8866 182.476 12.0184 182.476 12.1559V16.2506H186.423C186.56 16.2506 186.692 16.3052 186.789 16.4024C186.887 16.4996 186.941 16.6314 186.941 16.7689V18.1502C186.941 18.2877 186.887 18.4195 186.789 18.5167C186.692 18.6139 186.56 18.6686 186.423 18.6686H182.476V24.5307C182.475 25.138 182.713 25.7213 183.139 26.1543C183.565 26.5874 184.144 26.8355 184.751 26.845H184.793C185.297 26.8447 185.796 26.7498 186.265 26.5651C186.329 26.5398 186.397 26.5274 186.466 26.5288C186.535 26.5303 186.603 26.5454 186.666 26.5734C186.729 26.6014 186.786 26.6417 186.833 26.6919C186.88 26.7421 186.917 26.8012 186.941 26.8658L187.677 28.6799C187.728 28.7971 187.733 28.9288 187.693 29.0498C187.652 29.1708 187.568 29.2726 187.457 29.3355C186.184 30.0779 184.732 30.4596 183.259 30.4396Z" fill="#281354"/>
</svg>
